G04 #@! TF.GenerationSoftware,KiCad,Pcbnew,(5.1.2)-1*
G04 #@! TF.CreationDate,2023-02-23T11:23:53+09:00*
G04 #@! TF.ProjectId,osc,6f73632e-6b69-4636-9164-5f7063625858,v1.0*
G04 #@! TF.SameCoordinates,Original*
G04 #@! TF.FileFunction,Soldermask,Top*
G04 #@! TF.FilePolarity,Negative*
%FSLAX46Y46*%
G04 Gerber Fmt 4.6, Leading zero omitted, Abs format (unit mm)*
G04 Created by KiCad (PCBNEW (5.1.2)-1) date 2023-02-23 11:23:53*
%MOMM*%
%LPD*%
G04 APERTURE LIST*
%ADD10C,0.100000*%
G04 APERTURE END LIST*
D10*
G36*
X167630442Y-92705518D02*
G01*
X167696627Y-92712037D01*
X167866466Y-92763557D01*
X168022991Y-92847222D01*
X168058729Y-92876552D01*
X168160186Y-92959814D01*
X168243448Y-93061271D01*
X168272778Y-93097009D01*
X168356443Y-93253534D01*
X168407963Y-93423373D01*
X168425359Y-93600000D01*
X168407963Y-93776627D01*
X168356443Y-93946466D01*
X168272778Y-94102991D01*
X168243448Y-94138729D01*
X168160186Y-94240186D01*
X168058729Y-94323448D01*
X168022991Y-94352778D01*
X167866466Y-94436443D01*
X167696627Y-94487963D01*
X167630442Y-94494482D01*
X167564260Y-94501000D01*
X167475740Y-94501000D01*
X167409558Y-94494482D01*
X167343373Y-94487963D01*
X167173534Y-94436443D01*
X167017009Y-94352778D01*
X166981271Y-94323448D01*
X166879814Y-94240186D01*
X166796552Y-94138729D01*
X166767222Y-94102991D01*
X166683557Y-93946466D01*
X166632037Y-93776627D01*
X166614641Y-93600000D01*
X166632037Y-93423373D01*
X166683557Y-93253534D01*
X166767222Y-93097009D01*
X166796552Y-93061271D01*
X166879814Y-92959814D01*
X166981271Y-92876552D01*
X167017009Y-92847222D01*
X167173534Y-92763557D01*
X167343373Y-92712037D01*
X167409558Y-92705518D01*
X167475740Y-92699000D01*
X167564260Y-92699000D01*
X167630442Y-92705518D01*
X167630442Y-92705518D01*
G37*
G36*
X165090442Y-92705518D02*
G01*
X165156627Y-92712037D01*
X165326466Y-92763557D01*
X165482991Y-92847222D01*
X165518729Y-92876552D01*
X165620186Y-92959814D01*
X165703448Y-93061271D01*
X165732778Y-93097009D01*
X165816443Y-93253534D01*
X165867963Y-93423373D01*
X165885359Y-93600000D01*
X165867963Y-93776627D01*
X165816443Y-93946466D01*
X165732778Y-94102991D01*
X165703448Y-94138729D01*
X165620186Y-94240186D01*
X165518729Y-94323448D01*
X165482991Y-94352778D01*
X165326466Y-94436443D01*
X165156627Y-94487963D01*
X165090442Y-94494482D01*
X165024260Y-94501000D01*
X164935740Y-94501000D01*
X164869558Y-94494482D01*
X164803373Y-94487963D01*
X164633534Y-94436443D01*
X164477009Y-94352778D01*
X164441271Y-94323448D01*
X164339814Y-94240186D01*
X164256552Y-94138729D01*
X164227222Y-94102991D01*
X164143557Y-93946466D01*
X164092037Y-93776627D01*
X164074641Y-93600000D01*
X164092037Y-93423373D01*
X164143557Y-93253534D01*
X164227222Y-93097009D01*
X164256552Y-93061271D01*
X164339814Y-92959814D01*
X164441271Y-92876552D01*
X164477009Y-92847222D01*
X164633534Y-92763557D01*
X164803373Y-92712037D01*
X164869558Y-92705518D01*
X164935740Y-92699000D01*
X165024260Y-92699000D01*
X165090442Y-92705518D01*
X165090442Y-92705518D01*
G37*
G36*
X163341000Y-94501000D02*
G01*
X161539000Y-94501000D01*
X161539000Y-92699000D01*
X163341000Y-92699000D01*
X163341000Y-94501000D01*
X163341000Y-94501000D01*
G37*
G36*
X162099591Y-88990585D02*
G01*
X162133569Y-89000893D01*
X162164890Y-89017634D01*
X162192339Y-89040161D01*
X162214866Y-89067610D01*
X162231607Y-89098931D01*
X162241915Y-89132909D01*
X162246000Y-89174390D01*
X162246000Y-89775610D01*
X162241915Y-89817091D01*
X162231607Y-89851069D01*
X162214866Y-89882390D01*
X162192339Y-89909839D01*
X162164890Y-89932366D01*
X162133569Y-89949107D01*
X162099591Y-89959415D01*
X162058110Y-89963500D01*
X161381890Y-89963500D01*
X161340409Y-89959415D01*
X161306431Y-89949107D01*
X161275110Y-89932366D01*
X161247661Y-89909839D01*
X161225134Y-89882390D01*
X161208393Y-89851069D01*
X161198085Y-89817091D01*
X161194000Y-89775610D01*
X161194000Y-89174390D01*
X161198085Y-89132909D01*
X161208393Y-89098931D01*
X161225134Y-89067610D01*
X161247661Y-89040161D01*
X161275110Y-89017634D01*
X161306431Y-89000893D01*
X161340409Y-88990585D01*
X161381890Y-88986500D01*
X162058110Y-88986500D01*
X162099591Y-88990585D01*
X162099591Y-88990585D01*
G37*
G36*
X165627919Y-88389995D02*
G01*
X165651578Y-88399795D01*
X165672773Y-88413957D01*
X165672870Y-88414022D01*
X165690978Y-88432130D01*
X165690980Y-88432133D01*
X165705205Y-88453422D01*
X165715005Y-88477081D01*
X165720000Y-88502194D01*
X165720000Y-88527806D01*
X165715005Y-88552919D01*
X165705205Y-88576578D01*
X165691043Y-88597773D01*
X165690978Y-88597870D01*
X165672870Y-88615978D01*
X165672733Y-88616070D01*
X165653794Y-88631612D01*
X165638249Y-88650554D01*
X165626698Y-88672165D01*
X165619585Y-88695614D01*
X165617183Y-88720000D01*
X165619585Y-88744386D01*
X165626698Y-88767835D01*
X165638249Y-88789446D01*
X165653794Y-88808388D01*
X165672733Y-88823930D01*
X165672870Y-88824022D01*
X165690978Y-88842130D01*
X165690980Y-88842133D01*
X165705205Y-88863422D01*
X165715005Y-88887081D01*
X165720000Y-88912194D01*
X165720000Y-88937806D01*
X165715005Y-88962919D01*
X165705205Y-88986578D01*
X165702121Y-88991193D01*
X165690978Y-89007870D01*
X165672870Y-89025978D01*
X165672867Y-89025980D01*
X165651578Y-89040205D01*
X165627919Y-89050005D01*
X165602806Y-89055000D01*
X165577194Y-89055000D01*
X165552081Y-89050005D01*
X165528422Y-89040205D01*
X165507133Y-89025980D01*
X165507130Y-89025978D01*
X165489022Y-89007870D01*
X165477879Y-88991193D01*
X165474795Y-88986578D01*
X165464995Y-88962919D01*
X165460000Y-88937806D01*
X165460000Y-88912194D01*
X165464995Y-88887081D01*
X165474795Y-88863422D01*
X165489020Y-88842133D01*
X165489022Y-88842130D01*
X165507130Y-88824022D01*
X165507267Y-88823930D01*
X165526206Y-88808388D01*
X165541751Y-88789446D01*
X165553302Y-88767835D01*
X165560415Y-88744386D01*
X165562817Y-88720000D01*
X165560415Y-88695614D01*
X165553302Y-88672165D01*
X165541751Y-88650554D01*
X165526206Y-88631612D01*
X165507267Y-88616070D01*
X165507130Y-88615978D01*
X165489022Y-88597870D01*
X165488957Y-88597773D01*
X165474795Y-88576578D01*
X165464995Y-88552919D01*
X165460000Y-88527806D01*
X165460000Y-88502194D01*
X165464995Y-88477081D01*
X165474795Y-88453422D01*
X165489020Y-88432133D01*
X165489022Y-88432130D01*
X165507130Y-88414022D01*
X165507227Y-88413957D01*
X165528422Y-88399795D01*
X165552081Y-88389995D01*
X165577194Y-88385000D01*
X165602806Y-88385000D01*
X165627919Y-88389995D01*
X165627919Y-88389995D01*
G37*
G36*
X164627919Y-88389995D02*
G01*
X164651578Y-88399795D01*
X164672773Y-88413957D01*
X164672870Y-88414022D01*
X164690978Y-88432130D01*
X164690980Y-88432133D01*
X164705205Y-88453422D01*
X164715005Y-88477081D01*
X164720000Y-88502194D01*
X164720000Y-88527806D01*
X164715005Y-88552919D01*
X164705205Y-88576578D01*
X164691043Y-88597773D01*
X164690978Y-88597870D01*
X164672870Y-88615978D01*
X164672733Y-88616070D01*
X164653794Y-88631612D01*
X164638249Y-88650554D01*
X164626698Y-88672165D01*
X164619585Y-88695614D01*
X164617183Y-88720000D01*
X164619585Y-88744386D01*
X164626698Y-88767835D01*
X164638249Y-88789446D01*
X164653794Y-88808388D01*
X164672733Y-88823930D01*
X164672870Y-88824022D01*
X164690978Y-88842130D01*
X164690980Y-88842133D01*
X164705205Y-88863422D01*
X164715005Y-88887081D01*
X164720000Y-88912194D01*
X164720000Y-88937806D01*
X164715005Y-88962919D01*
X164705205Y-88986578D01*
X164702121Y-88991193D01*
X164690978Y-89007870D01*
X164672870Y-89025978D01*
X164672867Y-89025980D01*
X164651578Y-89040205D01*
X164627919Y-89050005D01*
X164602806Y-89055000D01*
X164577194Y-89055000D01*
X164552081Y-89050005D01*
X164528422Y-89040205D01*
X164507133Y-89025980D01*
X164507130Y-89025978D01*
X164489022Y-89007870D01*
X164477879Y-88991193D01*
X164474795Y-88986578D01*
X164464995Y-88962919D01*
X164460000Y-88937806D01*
X164460000Y-88912194D01*
X164464995Y-88887081D01*
X164474795Y-88863422D01*
X164489020Y-88842133D01*
X164489022Y-88842130D01*
X164507130Y-88824022D01*
X164507267Y-88823930D01*
X164526206Y-88808388D01*
X164541751Y-88789446D01*
X164553302Y-88767835D01*
X164560415Y-88744386D01*
X164562817Y-88720000D01*
X164560415Y-88695614D01*
X164553302Y-88672165D01*
X164541751Y-88650554D01*
X164526206Y-88631612D01*
X164507267Y-88616070D01*
X164507130Y-88615978D01*
X164489022Y-88597870D01*
X164488957Y-88597773D01*
X164474795Y-88576578D01*
X164464995Y-88552919D01*
X164460000Y-88527806D01*
X164460000Y-88502194D01*
X164464995Y-88477081D01*
X164474795Y-88453422D01*
X164489020Y-88432133D01*
X164489022Y-88432130D01*
X164507130Y-88414022D01*
X164507227Y-88413957D01*
X164528422Y-88399795D01*
X164552081Y-88389995D01*
X164577194Y-88385000D01*
X164602806Y-88385000D01*
X164627919Y-88389995D01*
X164627919Y-88389995D01*
G37*
G36*
X162099591Y-87415585D02*
G01*
X162133569Y-87425893D01*
X162164890Y-87442634D01*
X162192339Y-87465161D01*
X162214866Y-87492610D01*
X162231607Y-87523931D01*
X162241915Y-87557909D01*
X162246000Y-87599390D01*
X162246000Y-88200610D01*
X162241915Y-88242091D01*
X162231607Y-88276069D01*
X162214866Y-88307390D01*
X162192339Y-88334839D01*
X162164890Y-88357366D01*
X162133569Y-88374107D01*
X162099591Y-88384415D01*
X162058110Y-88388500D01*
X161381890Y-88388500D01*
X161340409Y-88384415D01*
X161306431Y-88374107D01*
X161275110Y-88357366D01*
X161247661Y-88334839D01*
X161225134Y-88307390D01*
X161208393Y-88276069D01*
X161198085Y-88242091D01*
X161194000Y-88200610D01*
X161194000Y-87599390D01*
X161198085Y-87557909D01*
X161208393Y-87523931D01*
X161225134Y-87492610D01*
X161247661Y-87465161D01*
X161275110Y-87442634D01*
X161306431Y-87425893D01*
X161340409Y-87415585D01*
X161381890Y-87411500D01*
X162058110Y-87411500D01*
X162099591Y-87415585D01*
X162099591Y-87415585D01*
G37*
M02*
