G04 #@! TF.GenerationSoftware,KiCad,Pcbnew,(5.1.2)-1*
G04 #@! TF.CreationDate,2023-02-23T11:23:53+09:00*
G04 #@! TF.ProjectId,osc,6f73632e-6b69-4636-9164-5f7063625858,v1.0*
G04 #@! TF.SameCoordinates,Original*
G04 #@! TF.FileFunction,Legend,Top*
G04 #@! TF.FilePolarity,Positive*
%FSLAX46Y46*%
G04 Gerber Fmt 4.6, Leading zero omitted, Abs format (unit mm)*
G04 Created by KiCad (PCBNEW (5.1.2)-1) date 2023-02-23 11:23:53*
%MOMM*%
%LPD*%
G04 APERTURE LIST*
%ADD10C,0.150000*%
%ADD11C,0.100000*%
%ADD12C,0.120000*%
%ADD13C,0.260000*%
%ADD14O,1.802000X1.802000*%
%ADD15R,1.802000X1.802000*%
%ADD16C,0.977000*%
G04 APERTURE END LIST*
D10*
X162091904Y-91062380D02*
X162425238Y-92062380D01*
X162758571Y-91062380D01*
X165187142Y-91967142D02*
X165139523Y-92014761D01*
X164996666Y-92062380D01*
X164901428Y-92062380D01*
X164758571Y-92014761D01*
X164663333Y-91919523D01*
X164615714Y-91824285D01*
X164568095Y-91633809D01*
X164568095Y-91490952D01*
X164615714Y-91300476D01*
X164663333Y-91205238D01*
X164758571Y-91110000D01*
X164901428Y-91062380D01*
X164996666Y-91062380D01*
X165139523Y-91110000D01*
X165187142Y-91157619D01*
X167663333Y-91110000D02*
X167568095Y-91062380D01*
X167425238Y-91062380D01*
X167282380Y-91110000D01*
X167187142Y-91205238D01*
X167139523Y-91300476D01*
X167091904Y-91490952D01*
X167091904Y-91633809D01*
X167139523Y-91824285D01*
X167187142Y-91919523D01*
X167282380Y-92014761D01*
X167425238Y-92062380D01*
X167520476Y-92062380D01*
X167663333Y-92014761D01*
X167710952Y-91967142D01*
X167710952Y-91633809D01*
X167520476Y-91633809D01*
D11*
X166140000Y-88120000D02*
G75*
G03X166140000Y-88120000I-50000J0D01*
G01*
D12*
X161110000Y-94930000D02*
X161110000Y-93600000D01*
X162440000Y-94930000D02*
X161110000Y-94930000D01*
X163710000Y-94930000D02*
X163710000Y-92270000D01*
X163710000Y-92270000D02*
X168850000Y-92270000D01*
X163710000Y-94930000D02*
X168850000Y-94930000D01*
X168850000Y-94930000D02*
X168850000Y-92270000D01*
X162230000Y-88850279D02*
X162230000Y-88524721D01*
X161210000Y-88850279D02*
X161210000Y-88524721D01*
D10*
X164308095Y-85422380D02*
X164308095Y-86231904D01*
X164355714Y-86327142D01*
X164403333Y-86374761D01*
X164498571Y-86422380D01*
X164689047Y-86422380D01*
X164784285Y-86374761D01*
X164831904Y-86327142D01*
X164879523Y-86231904D01*
X164879523Y-85422380D01*
X165879523Y-86422380D02*
X165308095Y-86422380D01*
X165593809Y-86422380D02*
X165593809Y-85422380D01*
X165498571Y-85565238D01*
X165403333Y-85660476D01*
X165308095Y-85708095D01*
X161523333Y-86757142D02*
X161475714Y-86804761D01*
X161332857Y-86852380D01*
X161237619Y-86852380D01*
X161094761Y-86804761D01*
X160999523Y-86709523D01*
X160951904Y-86614285D01*
X160904285Y-86423809D01*
X160904285Y-86280952D01*
X160951904Y-86090476D01*
X160999523Y-85995238D01*
X161094761Y-85900000D01*
X161237619Y-85852380D01*
X161332857Y-85852380D01*
X161475714Y-85900000D01*
X161523333Y-85947619D01*
X162475714Y-86852380D02*
X161904285Y-86852380D01*
X162190000Y-86852380D02*
X162190000Y-85852380D01*
X162094761Y-85995238D01*
X161999523Y-86090476D01*
X161904285Y-86138095D01*
%LPC*%
D13*
X165590000Y-88925000D03*
X164590000Y-88925000D03*
X164590000Y-88515000D03*
X165590000Y-88515000D03*
D14*
X167520000Y-93600000D03*
X164980000Y-93600000D03*
D15*
X162440000Y-93600000D03*
D11*
G36*
X162025691Y-87412676D02*
G01*
X162049401Y-87416193D01*
X162072652Y-87422017D01*
X162095220Y-87430092D01*
X162116889Y-87440341D01*
X162137448Y-87452664D01*
X162156701Y-87466942D01*
X162174461Y-87483039D01*
X162190558Y-87500799D01*
X162204836Y-87520052D01*
X162217159Y-87540611D01*
X162227408Y-87562280D01*
X162235483Y-87584848D01*
X162241307Y-87608099D01*
X162244824Y-87631809D01*
X162246000Y-87655750D01*
X162246000Y-88144250D01*
X162244824Y-88168191D01*
X162241307Y-88191901D01*
X162235483Y-88215152D01*
X162227408Y-88237720D01*
X162217159Y-88259389D01*
X162204836Y-88279948D01*
X162190558Y-88299201D01*
X162174461Y-88316961D01*
X162156701Y-88333058D01*
X162137448Y-88347336D01*
X162116889Y-88359659D01*
X162095220Y-88369908D01*
X162072652Y-88377983D01*
X162049401Y-88383807D01*
X162025691Y-88387324D01*
X162001750Y-88388500D01*
X161438250Y-88388500D01*
X161414309Y-88387324D01*
X161390599Y-88383807D01*
X161367348Y-88377983D01*
X161344780Y-88369908D01*
X161323111Y-88359659D01*
X161302552Y-88347336D01*
X161283299Y-88333058D01*
X161265539Y-88316961D01*
X161249442Y-88299201D01*
X161235164Y-88279948D01*
X161222841Y-88259389D01*
X161212592Y-88237720D01*
X161204517Y-88215152D01*
X161198693Y-88191901D01*
X161195176Y-88168191D01*
X161194000Y-88144250D01*
X161194000Y-87655750D01*
X161195176Y-87631809D01*
X161198693Y-87608099D01*
X161204517Y-87584848D01*
X161212592Y-87562280D01*
X161222841Y-87540611D01*
X161235164Y-87520052D01*
X161249442Y-87500799D01*
X161265539Y-87483039D01*
X161283299Y-87466942D01*
X161302552Y-87452664D01*
X161323111Y-87440341D01*
X161344780Y-87430092D01*
X161367348Y-87422017D01*
X161390599Y-87416193D01*
X161414309Y-87412676D01*
X161438250Y-87411500D01*
X162001750Y-87411500D01*
X162025691Y-87412676D01*
X162025691Y-87412676D01*
G37*
D16*
X161720000Y-87900000D03*
D11*
G36*
X162025691Y-88987676D02*
G01*
X162049401Y-88991193D01*
X162072652Y-88997017D01*
X162095220Y-89005092D01*
X162116889Y-89015341D01*
X162137448Y-89027664D01*
X162156701Y-89041942D01*
X162174461Y-89058039D01*
X162190558Y-89075799D01*
X162204836Y-89095052D01*
X162217159Y-89115611D01*
X162227408Y-89137280D01*
X162235483Y-89159848D01*
X162241307Y-89183099D01*
X162244824Y-89206809D01*
X162246000Y-89230750D01*
X162246000Y-89719250D01*
X162244824Y-89743191D01*
X162241307Y-89766901D01*
X162235483Y-89790152D01*
X162227408Y-89812720D01*
X162217159Y-89834389D01*
X162204836Y-89854948D01*
X162190558Y-89874201D01*
X162174461Y-89891961D01*
X162156701Y-89908058D01*
X162137448Y-89922336D01*
X162116889Y-89934659D01*
X162095220Y-89944908D01*
X162072652Y-89952983D01*
X162049401Y-89958807D01*
X162025691Y-89962324D01*
X162001750Y-89963500D01*
X161438250Y-89963500D01*
X161414309Y-89962324D01*
X161390599Y-89958807D01*
X161367348Y-89952983D01*
X161344780Y-89944908D01*
X161323111Y-89934659D01*
X161302552Y-89922336D01*
X161283299Y-89908058D01*
X161265539Y-89891961D01*
X161249442Y-89874201D01*
X161235164Y-89854948D01*
X161222841Y-89834389D01*
X161212592Y-89812720D01*
X161204517Y-89790152D01*
X161198693Y-89766901D01*
X161195176Y-89743191D01*
X161194000Y-89719250D01*
X161194000Y-89230750D01*
X161195176Y-89206809D01*
X161198693Y-89183099D01*
X161204517Y-89159848D01*
X161212592Y-89137280D01*
X161222841Y-89115611D01*
X161235164Y-89095052D01*
X161249442Y-89075799D01*
X161265539Y-89058039D01*
X161283299Y-89041942D01*
X161302552Y-89027664D01*
X161323111Y-89015341D01*
X161344780Y-89005092D01*
X161367348Y-88997017D01*
X161390599Y-88991193D01*
X161414309Y-88987676D01*
X161438250Y-88986500D01*
X162001750Y-88986500D01*
X162025691Y-88987676D01*
X162025691Y-88987676D01*
G37*
D16*
X161720000Y-89475000D03*
M02*
