G04 #@! TF.GenerationSoftware,KiCad,Pcbnew,(5.1.2)-1*
G04 #@! TF.CreationDate,2023-02-23T11:23:53+09:00*
G04 #@! TF.ProjectId,osc,6f73632e-6b69-4636-9164-5f7063625858,v1.0*
G04 #@! TF.SameCoordinates,Original*
G04 #@! TF.FileFunction,Soldermask,Bot*
G04 #@! TF.FilePolarity,Negative*
%FSLAX46Y46*%
G04 Gerber Fmt 4.6, Leading zero omitted, Abs format (unit mm)*
G04 Created by KiCad (PCBNEW (5.1.2)-1) date 2023-02-23 11:23:53*
%MOMM*%
%LPD*%
G04 APERTURE LIST*
%ADD10C,0.100000*%
G04 APERTURE END LIST*
D10*
G36*
X167630442Y-92705518D02*
G01*
X167696627Y-92712037D01*
X167866466Y-92763557D01*
X168022991Y-92847222D01*
X168058729Y-92876552D01*
X168160186Y-92959814D01*
X168243448Y-93061271D01*
X168272778Y-93097009D01*
X168356443Y-93253534D01*
X168407963Y-93423373D01*
X168425359Y-93600000D01*
X168407963Y-93776627D01*
X168356443Y-93946466D01*
X168272778Y-94102991D01*
X168243448Y-94138729D01*
X168160186Y-94240186D01*
X168058729Y-94323448D01*
X168022991Y-94352778D01*
X167866466Y-94436443D01*
X167696627Y-94487963D01*
X167630442Y-94494482D01*
X167564260Y-94501000D01*
X167475740Y-94501000D01*
X167409558Y-94494482D01*
X167343373Y-94487963D01*
X167173534Y-94436443D01*
X167017009Y-94352778D01*
X166981271Y-94323448D01*
X166879814Y-94240186D01*
X166796552Y-94138729D01*
X166767222Y-94102991D01*
X166683557Y-93946466D01*
X166632037Y-93776627D01*
X166614641Y-93600000D01*
X166632037Y-93423373D01*
X166683557Y-93253534D01*
X166767222Y-93097009D01*
X166796552Y-93061271D01*
X166879814Y-92959814D01*
X166981271Y-92876552D01*
X167017009Y-92847222D01*
X167173534Y-92763557D01*
X167343373Y-92712037D01*
X167409558Y-92705518D01*
X167475740Y-92699000D01*
X167564260Y-92699000D01*
X167630442Y-92705518D01*
X167630442Y-92705518D01*
G37*
G36*
X165090442Y-92705518D02*
G01*
X165156627Y-92712037D01*
X165326466Y-92763557D01*
X165482991Y-92847222D01*
X165518729Y-92876552D01*
X165620186Y-92959814D01*
X165703448Y-93061271D01*
X165732778Y-93097009D01*
X165816443Y-93253534D01*
X165867963Y-93423373D01*
X165885359Y-93600000D01*
X165867963Y-93776627D01*
X165816443Y-93946466D01*
X165732778Y-94102991D01*
X165703448Y-94138729D01*
X165620186Y-94240186D01*
X165518729Y-94323448D01*
X165482991Y-94352778D01*
X165326466Y-94436443D01*
X165156627Y-94487963D01*
X165090442Y-94494482D01*
X165024260Y-94501000D01*
X164935740Y-94501000D01*
X164869558Y-94494482D01*
X164803373Y-94487963D01*
X164633534Y-94436443D01*
X164477009Y-94352778D01*
X164441271Y-94323448D01*
X164339814Y-94240186D01*
X164256552Y-94138729D01*
X164227222Y-94102991D01*
X164143557Y-93946466D01*
X164092037Y-93776627D01*
X164074641Y-93600000D01*
X164092037Y-93423373D01*
X164143557Y-93253534D01*
X164227222Y-93097009D01*
X164256552Y-93061271D01*
X164339814Y-92959814D01*
X164441271Y-92876552D01*
X164477009Y-92847222D01*
X164633534Y-92763557D01*
X164803373Y-92712037D01*
X164869558Y-92705518D01*
X164935740Y-92699000D01*
X165024260Y-92699000D01*
X165090442Y-92705518D01*
X165090442Y-92705518D01*
G37*
G36*
X163341000Y-94501000D02*
G01*
X161539000Y-94501000D01*
X161539000Y-92699000D01*
X163341000Y-92699000D01*
X163341000Y-94501000D01*
X163341000Y-94501000D01*
G37*
M02*
