G04 #@! TF.GenerationSoftware,KiCad,Pcbnew,(5.1.2)-1*
G04 #@! TF.CreationDate,2023-02-23T11:23:53+09:00*
G04 #@! TF.ProjectId,osc,6f73632e-6b69-4636-9164-5f7063625858,v1.0*
G04 #@! TF.SameCoordinates,Original*
G04 #@! TF.FileFunction,Legend,Bot*
G04 #@! TF.FilePolarity,Positive*
%FSLAX46Y46*%
G04 Gerber Fmt 4.6, Leading zero omitted, Abs format (unit mm)*
G04 Created by KiCad (PCBNEW (5.1.2)-1) date 2023-02-23 11:23:53*
%MOMM*%
%LPD*%
G04 APERTURE LIST*
%ADD10C,0.120000*%
%ADD11O,1.802000X1.802000*%
%ADD12R,1.802000X1.802000*%
G04 APERTURE END LIST*
D10*
X167267619Y-86673809D02*
X167153333Y-86711904D01*
X166962857Y-86711904D01*
X166886666Y-86673809D01*
X166848571Y-86635714D01*
X166810476Y-86559523D01*
X166810476Y-86483333D01*
X166848571Y-86407142D01*
X166886666Y-86369047D01*
X166962857Y-86330952D01*
X167115238Y-86292857D01*
X167191428Y-86254761D01*
X167229523Y-86216666D01*
X167267619Y-86140476D01*
X167267619Y-86064285D01*
X167229523Y-85988095D01*
X167191428Y-85950000D01*
X167115238Y-85911904D01*
X166924761Y-85911904D01*
X166810476Y-85950000D01*
X166467619Y-86711904D02*
X166467619Y-86178571D01*
X166467619Y-85911904D02*
X166505714Y-85950000D01*
X166467619Y-85988095D01*
X166429523Y-85950000D01*
X166467619Y-85911904D01*
X166467619Y-85988095D01*
X166200952Y-85911904D02*
X165743809Y-85911904D01*
X165972380Y-86711904D02*
X165972380Y-85911904D01*
X165058095Y-86711904D02*
X165515238Y-86711904D01*
X165286666Y-86711904D02*
X165286666Y-85911904D01*
X165362857Y-86026190D01*
X165439047Y-86102380D01*
X165515238Y-86140476D01*
X164334285Y-85911904D02*
X164715238Y-85911904D01*
X164753333Y-86292857D01*
X164715238Y-86254761D01*
X164639047Y-86216666D01*
X164448571Y-86216666D01*
X164372380Y-86254761D01*
X164334285Y-86292857D01*
X164296190Y-86369047D01*
X164296190Y-86559523D01*
X164334285Y-86635714D01*
X164372380Y-86673809D01*
X164448571Y-86711904D01*
X164639047Y-86711904D01*
X164715238Y-86673809D01*
X164753333Y-86635714D01*
X163572380Y-85911904D02*
X163953333Y-85911904D01*
X163991428Y-86292857D01*
X163953333Y-86254761D01*
X163877142Y-86216666D01*
X163686666Y-86216666D01*
X163610476Y-86254761D01*
X163572380Y-86292857D01*
X163534285Y-86369047D01*
X163534285Y-86559523D01*
X163572380Y-86635714D01*
X163610476Y-86673809D01*
X163686666Y-86711904D01*
X163877142Y-86711904D01*
X163953333Y-86673809D01*
X163991428Y-86635714D01*
X163229523Y-85988095D02*
X163191428Y-85950000D01*
X163115238Y-85911904D01*
X162924761Y-85911904D01*
X162848571Y-85950000D01*
X162810476Y-85988095D01*
X162772380Y-86064285D01*
X162772380Y-86140476D01*
X162810476Y-86254761D01*
X163267619Y-86711904D01*
X162772380Y-86711904D01*
X168372380Y-87231904D02*
X167877142Y-87231904D01*
X168143809Y-87536666D01*
X168029523Y-87536666D01*
X167953333Y-87574761D01*
X167915238Y-87612857D01*
X167877142Y-87689047D01*
X167877142Y-87879523D01*
X167915238Y-87955714D01*
X167953333Y-87993809D01*
X168029523Y-88031904D01*
X168258095Y-88031904D01*
X168334285Y-87993809D01*
X168372380Y-87955714D01*
X167572380Y-87308095D02*
X167534285Y-87270000D01*
X167458095Y-87231904D01*
X167267619Y-87231904D01*
X167191428Y-87270000D01*
X167153333Y-87308095D01*
X167115238Y-87384285D01*
X167115238Y-87460476D01*
X167153333Y-87574761D01*
X167610476Y-88031904D01*
X167115238Y-88031904D01*
X166772380Y-87955714D02*
X166734285Y-87993809D01*
X166772380Y-88031904D01*
X166810476Y-87993809D01*
X166772380Y-87955714D01*
X166772380Y-88031904D01*
X166467619Y-87231904D02*
X165934285Y-87231904D01*
X166277142Y-88031904D01*
X165286666Y-87231904D02*
X165439047Y-87231904D01*
X165515238Y-87270000D01*
X165553333Y-87308095D01*
X165629523Y-87422380D01*
X165667619Y-87574761D01*
X165667619Y-87879523D01*
X165629523Y-87955714D01*
X165591428Y-87993809D01*
X165515238Y-88031904D01*
X165362857Y-88031904D01*
X165286666Y-87993809D01*
X165248571Y-87955714D01*
X165210476Y-87879523D01*
X165210476Y-87689047D01*
X165248571Y-87612857D01*
X165286666Y-87574761D01*
X165362857Y-87536666D01*
X165515238Y-87536666D01*
X165591428Y-87574761D01*
X165629523Y-87612857D01*
X165667619Y-87689047D01*
X164753333Y-87574761D02*
X164829523Y-87536666D01*
X164867619Y-87498571D01*
X164905714Y-87422380D01*
X164905714Y-87384285D01*
X164867619Y-87308095D01*
X164829523Y-87270000D01*
X164753333Y-87231904D01*
X164600952Y-87231904D01*
X164524761Y-87270000D01*
X164486666Y-87308095D01*
X164448571Y-87384285D01*
X164448571Y-87422380D01*
X164486666Y-87498571D01*
X164524761Y-87536666D01*
X164600952Y-87574761D01*
X164753333Y-87574761D01*
X164829523Y-87612857D01*
X164867619Y-87650952D01*
X164905714Y-87727142D01*
X164905714Y-87879523D01*
X164867619Y-87955714D01*
X164829523Y-87993809D01*
X164753333Y-88031904D01*
X164600952Y-88031904D01*
X164524761Y-87993809D01*
X164486666Y-87955714D01*
X164448571Y-87879523D01*
X164448571Y-87727142D01*
X164486666Y-87650952D01*
X164524761Y-87612857D01*
X164600952Y-87574761D01*
X163496190Y-88031904D02*
X163496190Y-87231904D01*
X163420000Y-87727142D02*
X163191428Y-88031904D01*
X163191428Y-87498571D02*
X163496190Y-87803333D01*
X162848571Y-88031904D02*
X162848571Y-87231904D01*
X162848571Y-87612857D02*
X162391428Y-87612857D01*
X162391428Y-88031904D02*
X162391428Y-87231904D01*
X162086666Y-87498571D02*
X161667619Y-87498571D01*
X162086666Y-88031904D01*
X161667619Y-88031904D01*
X167991428Y-89351904D02*
X167991428Y-88551904D01*
X167724761Y-89123333D01*
X167458095Y-88551904D01*
X167458095Y-89351904D01*
X167077142Y-88932857D02*
X166810476Y-88932857D01*
X166696190Y-89351904D02*
X167077142Y-89351904D01*
X167077142Y-88551904D01*
X166696190Y-88551904D01*
X166353333Y-89351904D02*
X166353333Y-88551904D01*
X166086666Y-89123333D01*
X165820000Y-88551904D01*
X165820000Y-89351904D01*
X165477142Y-89313809D02*
X165362857Y-89351904D01*
X165172380Y-89351904D01*
X165096190Y-89313809D01*
X165058095Y-89275714D01*
X165020000Y-89199523D01*
X165020000Y-89123333D01*
X165058095Y-89047142D01*
X165096190Y-89009047D01*
X165172380Y-88970952D01*
X165324761Y-88932857D01*
X165400952Y-88894761D01*
X165439047Y-88856666D01*
X165477142Y-88780476D01*
X165477142Y-88704285D01*
X165439047Y-88628095D01*
X165400952Y-88590000D01*
X165324761Y-88551904D01*
X165134285Y-88551904D01*
X165020000Y-88590000D01*
X163915238Y-88551904D02*
X163762857Y-88551904D01*
X163686666Y-88590000D01*
X163610476Y-88666190D01*
X163572380Y-88818571D01*
X163572380Y-89085238D01*
X163610476Y-89237619D01*
X163686666Y-89313809D01*
X163762857Y-89351904D01*
X163915238Y-89351904D01*
X163991428Y-89313809D01*
X164067619Y-89237619D01*
X164105714Y-89085238D01*
X164105714Y-88818571D01*
X164067619Y-88666190D01*
X163991428Y-88590000D01*
X163915238Y-88551904D01*
X163267619Y-89313809D02*
X163153333Y-89351904D01*
X162962857Y-89351904D01*
X162886666Y-89313809D01*
X162848571Y-89275714D01*
X162810476Y-89199523D01*
X162810476Y-89123333D01*
X162848571Y-89047142D01*
X162886666Y-89009047D01*
X162962857Y-88970952D01*
X163115238Y-88932857D01*
X163191428Y-88894761D01*
X163229523Y-88856666D01*
X163267619Y-88780476D01*
X163267619Y-88704285D01*
X163229523Y-88628095D01*
X163191428Y-88590000D01*
X163115238Y-88551904D01*
X162924761Y-88551904D01*
X162810476Y-88590000D01*
X162010476Y-89275714D02*
X162048571Y-89313809D01*
X162162857Y-89351904D01*
X162239047Y-89351904D01*
X162353333Y-89313809D01*
X162429523Y-89237619D01*
X162467619Y-89161428D01*
X162505714Y-89009047D01*
X162505714Y-88894761D01*
X162467619Y-88742380D01*
X162429523Y-88666190D01*
X162353333Y-88590000D01*
X162239047Y-88551904D01*
X162162857Y-88551904D01*
X162048571Y-88590000D01*
X162010476Y-88628095D01*
X167953333Y-89948095D02*
X167915238Y-89910000D01*
X167839047Y-89871904D01*
X167648571Y-89871904D01*
X167572380Y-89910000D01*
X167534285Y-89948095D01*
X167496190Y-90024285D01*
X167496190Y-90100476D01*
X167534285Y-90214761D01*
X167991428Y-90671904D01*
X167496190Y-90671904D01*
X167229523Y-89871904D02*
X166734285Y-89871904D01*
X167000952Y-90176666D01*
X166886666Y-90176666D01*
X166810476Y-90214761D01*
X166772380Y-90252857D01*
X166734285Y-90329047D01*
X166734285Y-90519523D01*
X166772380Y-90595714D01*
X166810476Y-90633809D01*
X166886666Y-90671904D01*
X167115238Y-90671904D01*
X167191428Y-90633809D01*
X167229523Y-90595714D01*
X166239047Y-89871904D02*
X166162857Y-89871904D01*
X166086666Y-89910000D01*
X166048571Y-89948095D01*
X166010476Y-90024285D01*
X165972380Y-90176666D01*
X165972380Y-90367142D01*
X166010476Y-90519523D01*
X166048571Y-90595714D01*
X166086666Y-90633809D01*
X166162857Y-90671904D01*
X166239047Y-90671904D01*
X166315238Y-90633809D01*
X166353333Y-90595714D01*
X166391428Y-90519523D01*
X166429523Y-90367142D01*
X166429523Y-90176666D01*
X166391428Y-90024285D01*
X166353333Y-89948095D01*
X166315238Y-89910000D01*
X166239047Y-89871904D01*
X165705714Y-89871904D02*
X165210476Y-89871904D01*
X165477142Y-90176666D01*
X165362857Y-90176666D01*
X165286666Y-90214761D01*
X165248571Y-90252857D01*
X165210476Y-90329047D01*
X165210476Y-90519523D01*
X165248571Y-90595714D01*
X165286666Y-90633809D01*
X165362857Y-90671904D01*
X165591428Y-90671904D01*
X165667619Y-90633809D01*
X165705714Y-90595714D01*
X164334285Y-90138571D02*
X164143809Y-90671904D01*
X163953333Y-90138571D01*
X163229523Y-90671904D02*
X163686666Y-90671904D01*
X163458095Y-90671904D02*
X163458095Y-89871904D01*
X163534285Y-89986190D01*
X163610476Y-90062380D01*
X163686666Y-90100476D01*
X162886666Y-90595714D02*
X162848571Y-90633809D01*
X162886666Y-90671904D01*
X162924761Y-90633809D01*
X162886666Y-90595714D01*
X162886666Y-90671904D01*
X162353333Y-89871904D02*
X162277142Y-89871904D01*
X162200952Y-89910000D01*
X162162857Y-89948095D01*
X162124761Y-90024285D01*
X162086666Y-90176666D01*
X162086666Y-90367142D01*
X162124761Y-90519523D01*
X162162857Y-90595714D01*
X162200952Y-90633809D01*
X162277142Y-90671904D01*
X162353333Y-90671904D01*
X162429523Y-90633809D01*
X162467619Y-90595714D01*
X162505714Y-90519523D01*
X162543809Y-90367142D01*
X162543809Y-90176666D01*
X162505714Y-90024285D01*
X162467619Y-89948095D01*
X162429523Y-89910000D01*
X162353333Y-89871904D01*
%LPC*%
D11*
X167520000Y-93600000D03*
X164980000Y-93600000D03*
D12*
X162440000Y-93600000D03*
M02*
